<?xml version="1.0" encoding="utf-8"?>
<!-- Generator: Adobe Illustrator 26.0.0, SVG Export Plug-In . SVG Version: 6.00 Build 0)  -->
<svg version="1.1" id="Layer_1" xmlns="http://www.w3.org/2000/svg" xmlns:xlink="http://www.w3.org/1999/xlink" x="0px" y="0px"
	 viewBox="0 0 48 48" style="enable-background:new 0 0 48 48;" xml:space="preserve">
<style type="text/css">
	.st0{fill:#4285F4;}
	.st1{fill:#34A853;}
	.st2{fill:#EA4436;}
	.st3{fill:#F4B400;}
	.st4{fill:#FFFFFF;}
</style>
<path class="st0" d="M7,14.5c0-1.2,1-2.2,2.2-2.2h6.5h16.5h6.5c0.4,0,0.9,0.1,1.2,0.4L37.3,9h-3.6L30,4.7H18L14.3,9H7
	C6.2,9,5.5,9.3,4.9,10C4.3,10.6,4,11.3,4,12v17.3c0.8,0.4,1.8,0.9,3,1.6V14.5z"/>
<path class="st1" d="M40.9,13.9l3.1,4.2V12c0-0.8-0.3-1.5-0.9-2.1C42.5,9.3,41.8,9,41,9h-3.7l2.7,3.7C40.4,13,40.8,13.4,40.9,13.9z"
	/>
<path class="st2" d="M40.9,13.9c0.1,0.2,0.1,0.4,0.1,0.6v21.2c0,1.2-1,2.2-2.2,2.2H14.5c0.5,0.8,1,1.7,1.4,2.7H41
	c0.8,0,1.5-0.3,2.1-0.9c0.6-0.6,0.9-1.3,0.9-2.1V18.1L40.9,13.9z"/>
<path class="st3" d="M9.2,38C8,38,7,37,7,35.8v-4.9c-1.2-0.7-2.2-1.2-3-1.6v8.4c0,0.8,0.3,1.5,0.9,2.1c0.6,0.6,1.3,0.9,2.1,0.9h8.9
	c-0.4-1-0.9-1.9-1.4-2.7H9.2z"/>
<path class="st4" d="M7,30.9v4.9C7,37,8,38,9.2,38h5.3C12.4,34.7,9.5,32.4,7,30.9z"/>
<path class="st4" d="M40,12.7l0.9,1.2C40.8,13.4,40.4,13,40,12.7z"/>
<path class="st4" d="M38.8,12.3h-6.5H15.8H9.2c-1.2,0-2.2,1-2.2,2.2v16.4c2.5,1.5,5.4,3.8,7.5,7.1h24.3c1.2,0,2.2-1,2.2-2.2V14.5
	c0-0.2,0-0.4-0.1-0.6L40,12.7C39.6,12.5,39.2,12.3,38.8,12.3z M30,31.2c-1.6,1.6-3.7,2.5-6.1,2.5c-2.4,0-4.4-0.8-6-2.5
	c-1.6-1.6-2.4-3.7-2.4-6.1s0.8-4.4,2.4-6c1.6-1.6,3.6-2.4,6-2.4c2.4,0,4.4,0.8,6.1,2.4c1.6,1.6,2.5,3.6,2.5,6S31.7,29.6,30,31.2z"/>
<path class="st0" d="M24,16.7c-2.4,0-4.4,0.8-6,2.4c-1.6,1.6-2.4,3.6-2.4,6s0.8,4.4,2.4,6.1c1.6,1.6,3.6,2.5,6,2.5
	c2.4,0,4.4-0.8,6.1-2.5c1.6-1.6,2.5-3.7,2.5-6.1s-0.8-4.4-2.5-6C28.4,17.5,26.4,16.7,24,16.7z"/>
</svg>
