<?xml version="1.0" encoding="utf-8"?>
<!-- Generator: Adobe Illustrator 26.0.0, SVG Export Plug-In . SVG Version: 6.00 Build 0)  -->
<svg version="1.1" id="Layer_1" xmlns="http://www.w3.org/2000/svg" xmlns:xlink="http://www.w3.org/1999/xlink" x="0px" y="0px"
	 viewBox="0 0 48 48" style="enable-background:new 0 0 48 48;" xml:space="preserve">
<style type="text/css">
	.st0{fill:#F4B400;}
	.st1{fill:#4285F4;}
	.st2{fill:#34A853;}
	.st3{fill:#EA4436;}
</style>
<g>
	<path class="st0" d="M16.8,29.1c-2.1-1.8-3.3-4-3.6-6.7c0-0.1-3,0.1-3,0.2c0.4,3.2,1.7,5.9,4,8.1c0.4,0.4,0.8,0.7,1.2,1.1l1.6-2.5
		C17,29.2,16.9,29.2,16.8,29.1z"/>
	<path class="st1" d="M24.1,26.3c1.4,0,2.6-0.5,3.6-1.5c1-1,1.5-2.3,1.5-3.8V8.5c0-1.4-0.5-2.6-1.5-3.5c-1-1-2.2-1.5-3.6-1.5
		S21.5,4,20.5,4.9c-1,1-1.5,2.2-1.5,3.5V21c0,1.5,0.5,2.7,1.5,3.8C21.4,25.8,22.6,26.3,24.1,26.3z"/>
	<path class="st2" d="M22.6,34.7V40c0,0.4,0.1,0.8,0.4,1.1c0.3,0.3,0.6,0.4,1.1,0.4c0.4,0,0.8-0.1,1.1-0.4c0.3-0.3,0.4-0.6,0.4-1.1
		v-5.3C24,34.9,22.6,34.7,22.6,34.7z"/>
	<path class="st3" d="M36.5,22.4c-0.8-0.1-1.5-0.1-1.6-0.1c-0.4,2.7-1.6,4.9-3.7,6.7s-4.5,2.7-7.3,2.7c-2.7,0-5-0.8-7-2.5l-1.6,2.5
		c2.1,1.6,4.4,2.6,7.1,2.9c0,0,1.4,0.3,3,0c3.3-0.4,6.1-1.7,8.4-3.9s3.7-5,4-8.1C38,22.6,37.3,22.5,36.5,22.4z"/>
</g>
</svg>
